<svg xmlns="http://www.w3.org/2000/svg"
     viewBox="-1.9601 -2.0523 3.9202 4.1047">
  <polygon points="1.0000,-0.3660 0.0000,-1.0922 -1.0000,-0.3660 -0.6180,0.8090 0.6180,0.8090" fill="none" stroke="black" stroke-width="0.1026" stroke-linejoin="round" stroke-linecap="round"/>
  <polygon points="0.6180,0.8090 -0.6180,0.8090 -1.0000,1.3660 0.0000,1.7103 1.0000,1.3660" fill="none" stroke="black" stroke-width="0.1026" stroke-linejoin="round" stroke-linecap="round"/>
  <polygon points="1.0000,-0.3660 0.6180,0.8090 1.0000,1.3660 1.6180,0.5352 1.6180,-0.5352" fill="none" stroke="black" stroke-width="0.1026" stroke-linejoin="round" stroke-linecap="round"/>
  <polygon points="-1.6180,-0.5352 -1.6180,0.5352 -1.0000,1.3660 -0.6180,0.8090 -1.0000,-0.3660" fill="none" stroke="black" stroke-width="0.1026" stroke-linejoin="round" stroke-linecap="round"/>
  <polygon points="1.0000,-0.3660 1.6180,-0.5352 1.0000,-1.3660 0.0000,-1.7103 0.0000,-1.0922" fill="none" stroke="black" stroke-width="0.1026" stroke-linejoin="round" stroke-linecap="round"/>
  <polygon points="0.0000,-1.0922 0.0000,-1.7103 -1.0000,-1.3660 -1.6180,-0.5352 -1.0000,-0.3660" fill="none" stroke="black" stroke-width="0.1026" stroke-linejoin="round" stroke-linecap="round"/>
</svg>